<svg xmlns="http://www.w3.org/2000/svg" viewBox="0 0 582.36155 107.51905">
  <defs>
    <style>
      .cls-1 {
        fill: none;
        stroke: #262424;
        stroke-miterlimit: 10;
        stroke-width: 4px;
      }

      .cls-2 {
        fill: #262424;
      }
    </style>
  </defs>
  <title>decoration</title>
  <g id="Слой_2" data-name="Слой 2">
    <g id="Layer_1" data-name="Layer 1">
      <g id="decoration_3" data-name="decoration 3">
        <rect class="cls-1" x="286.60719" y="23.15176" width="10" height="10" transform="translate(65.50346 214.44288) rotate(-45)"/>
        <rect class="cls-1" x="280.83572" y="67.35905" width="21.54293" height="21.54293" transform="translate(30.16315 229.08132) rotate(-45)"/>
        <path class="cls-2" d="M581.404,56.90142c-5.03815.21893-10.07629.31557-15.11438.47667-5.03815.11555-10.07629.22058-15.11444.28827l-15.11441.17029-15.11441.06366-.824.00348-.58963-.589L513.641,51.42924H516.474l-16.56049,16.574-1.42221,1.42339-1.42453-1.42339L486.52893,57.474h2.8551l-4.9476,4.95163V59.56651l4.802,4.79811h-2.86307l9.56656-9.57439v2.87091l-9.90341-9.89531h2.879L479.351,57.34022l-.59717.59764-.8465.00035-107.419.04395,1.4744-.61072L356.44595,72.90092l-1.47977,1.481-1.48221-1.481L308.29675,27.75068,285.70317,5.17555a2.87752,2.87752,0,0,0-4.14543-.03938l-5.64378,5.6484L264.6264,22.08137V19.04576L315.82946,70.207H312.752l14.49393-14.5058v3.08937L312.95568,44.512h3.101l-8.485,8.49191v-3.108l27.60074,27.57814H332.0419l28.96518-28.98889v3.15427L339.885,30.53462h3.17154l-6.9856,6.99132.01053-3.1667,13.94446,14.11916,1.57346,1.59315-1.584,1.58527L321.78662,79.90873l-14.11441,14.126-7.05722,7.063-3.52859,3.53149-.44107.44144-.22055.22072-.195.1891-.11569.10466-.23138.20932-.40616.31522a6.87282,6.87282,0,0,1-.80682.51653,7.26287,7.26287,0,0,1-6.97792,0,7.19723,7.19723,0,0,1-1.46907-1.06374c-.25752-.23174-.34254-.33194-.5065-.49182l-.44109-.44144-3.52859-3.53149-7.05721-7.063-14.1144-14.126L232.34616,51.65681l-1.584-1.58527,1.57344-1.59315L246.2801,34.35923l.0105,3.1667-6.9856-6.99132h3.17155L221.35447,51.63943V48.48517l28.96519,28.98889H247.1891l27.60072-27.57814v3.108l-8.485-8.49191h3.101L255.11566,58.79052V55.70115L269.60958,70.207H266.5321l51.20306-51.16119v3.03561L306.4476,10.78457l-5.64377-5.6484a2.8775,2.8775,0,0,0-4.14542.03938L274.0648,27.75068,228.87759,72.90092l-1.48219,1.481-1.47978-1.481L210.39883,57.37144l1.47441.61072-107.419-.04395-.84651-.00035-.59715-.59764L93.444,47.76584h2.879l-9.9034,9.89531V54.79023l9.56656,9.57439H93.12309l4.802-4.79811v2.85916L92.97754,57.474h2.8551L85.29481,68.00325l-1.42455,1.42339L82.448,68.00325l-16.56046-16.574h2.83293l-5.89176,5.88554-.58962.589-.824-.00348-15.11441-.06366-15.11441-.17029c-5.03814-.06769-10.07627-.17271-15.11441-.28827-5.03814-.1611-10.07627-.25774-15.11441-.47667a1.00094,1.00094,0,0,1,0-2c5.03814-.21893,10.07627-.31557,15.11441-.47665,5.03814-.11557,10.07627-.2206,15.11441-.28828l15.11441-.17027,15.11441-.06367-1.41326.58539,5.88555-5.89175,1.41528-1.41678,1.41793,1.41678,16.574,16.56046H82.44818L92.9774,54.61879l1.42653-1.42769,1.42886,1.42769,4.95163,4.94759,1.42972,1.42854-1.42972,1.43089-4.79811,4.802-1.43051,1.43169L93.123,67.22784l-9.57439-9.56656L82.113,56.22686l1.4356-1.43677,9.8953-9.90341L94.88234,43.447l1.44082,1.43964,9.57439,9.56656-1.44332-.59784,107.419-.04395.863-.00037.61171.61122,15.52948,15.51677h-2.9617L271.066,24.75187l22.57513-22.5936a7.19661,7.19661,0,0,1,5.07-2.15737,7.09163,7.09163,0,0,1,2.7767.54306,7.60628,7.60628,0,0,1,1.26437.68186c.21042.15087.46741.34239.626.47811l.44742.41033,5.64841,5.64378,11.29681,11.28755,1.51794,1.51671-1.51794,1.5192L269.60974,73.28459l-1.53763,1.53888-1.54016-1.53888L252.02617,58.79066l-1.54482-1.54356,1.54482-1.54608L266.3047,41.41079l1.54939-1.55066,1.55194,1.55066,8.49191,8.485,1.55414,1.55286-1.55414,1.55542L250.31981,80.60476l-1.56415,1.56543-1.5667-1.56543L218.20005,51.63958l-1.57729-1.576,1.57729-1.57858,21.10481-21.12209,1.58463-1.58592,1.58722,1.58592,6.9913,6.9856,1.57828,1.577-1.56776,1.59L235.54559,51.64607l-.01054-3.17815L263.787,76.69673l14.126,14.11441,7.063,7.05721,3.53149,3.52859.44142.44107c.13345.13089.33072.33736.38864.37741a2.62344,2.62344,0,0,0,.54582.39691,2.70431,2.70431,0,0,0,2.595,0,2.57117,2.57117,0,0,0,.24469-.15323l.0943-.05724.23157-.20912.11578-.10457c.0845-.08-.08258.0798-.05536.05307l.02759-.02756.05518-.05515.22073-.22054.44144-.44107,3.53149-3.52861,7.063-7.05719,14.126-14.11441L346.8265,48.46792l-.01053,3.17815L332.88305,37.5155l-1.56778-1.59,1.57828-1.577,6.9913-6.9856,1.58722-1.58592,1.58463,1.58592L364.16153,48.485l1.57727,1.57858-1.57727,1.576L335.1726,80.60476l-1.56671,1.56543-1.56415-1.56543L304.46362,53.00406l-1.55414-1.55542,1.55414-1.55286,8.49191-8.485,1.55194-1.55066,1.54941,1.55066L330.33541,55.701l1.5448,1.54608-1.5448,1.54356-14.5058,14.49393-1.54016,1.53888-1.53763-1.53888L261.59063,22.08151l-1.51794-1.5192,1.51794-1.51671L272.88745,7.75805l5.64839-5.64378a7.12924,7.12924,0,0,1,9.14894-.82985l.32832.24565a3.23658,3.23658,0,0,1,.26233.21553l.185.1674.26.24528,22.57512,22.5936L356.4458,69.93908h-2.96167l15.52945-15.51677.61172-.61122.863.00037,107.419.04395-1.44333.59784,9.57437-9.56656,1.44083-1.43964,1.43848,1.43964L498.813,54.7901l1.43558,1.43677L498.813,57.66128l-9.5744,9.56656-1.43286,1.43169-1.43051-1.43169-4.7981-4.802-1.42972-1.43089,1.42972-1.42854,4.95163-4.94759,1.42886-1.42769,1.42651,1.42769,10.52924,10.53784h-2.8465l16.574-16.56046,1.41791-1.41678,1.41528,1.41678,5.88556,5.89175-1.41327-.58539,15.11441.06367,15.11441.17027c5.03815.06769,10.07629.17271,15.11444.28828,5.03809.16109,10.07623.25772,15.11438.47665a1.00094,1.00094,0,0,1,0,2Z"/>
      </g>
    </g>
  </g>
</svg>
