<svg xmlns="http://www.w3.org/2000/svg" viewBox="0 0 118.45125 71.18858">
  <defs>
    <style>
      .cls-1, .cls-3 {
        fill: none;
      }

      .cls-2, .cls-4, .cls-5 {
        fill: #262424;
      }

      .cls-3, .cls-4 {
        stroke: #262424;
      }

      .cls-3 {
        stroke-linecap: round;
        stroke-linejoin: round;
        stroke-width: 0.63619px;
      }

      .cls-4 {
        stroke-miterlimit: 10;
        stroke-width: 0.21371px;
      }

      .cls-5 {
        font-size: 22px;
        font-family: YesevaOne-Regular, Yeseva One;
      }

      .cls-6 {
        letter-spacing: -0.01001em;
      }

      .cls-7 {
        letter-spacing: -0.03001em;
      }
    </style>
  </defs>
  <title>logo</title>
  <g id="Слой_2" data-name="Слой 2">
    <g id="Isolation_Mode" data-name="Isolation Mode">
      <g>
        <path class="cls-1" d="M59.22563,0C26.51622,0,0,15.93611,0,35.59429S26.51622,71.18858,59.22563,71.18858s59.22563-15.93611,59.22563-35.59429S91.935,0,59.22563,0"/>
        <g>
          <path class="cls-2" d="M36.30377,54.117l-.13616.64082-.73972-.15716L34.9686,59.688l.019.00406,1.81-3.33147.29535,3.77856.019.00406,1.65422-4.83531-.73972-.1558.13616-.64082,1.71654.36444-.13616.63947-.4078-.08671-2.12163,6.19283-.569-.12058L36.379,58.32638l-1.53635,2.79226-.569-.12058.58528-6.518-.4078-.08671.13616-.64082Z"/>
          <path class="cls-2" d="M40.0051,58.44832c.26419-1.75719,1.25116-3.49947,2.84306-3.261,1.5919.2398,2.02408,2.19479,1.7599,3.952-.26351,1.75719-1.25116,3.49947-2.84306,3.261C40.1731,62.16049,39.74159,60.2055,40.0051,58.44832Zm3.97975.59747c.1978-1.31823.00339-3.02529-1.23355-3.21089-1.23762-.18561-1.92518,1.39-2.123,2.70691-.1978,1.31823-.00339,3.02529,1.23423,3.21089C43.09948,61.9383,43.787,60.364,43.98485,59.04579Z"/>
          <path class="cls-2" d="M50.532,63.26872l-1.06149-.10161-1.451-3.34231-.93617-.09077-.24319,2.52265.9172.08806-.063.65031-2.30724-.22219.063-.65031.79121.07587.53989-5.58994-.78037-.19238.05961-.61644a3.19868,3.19868,0,0,0,.87453.2249c.49247.04742,1.008-.04335,1.49977.00406a1.7012,1.7012,0,0,1,1.6698,1.97937,1.84806,1.84806,0,0,1-1.43677,1.76125l1.2322,2.78277.695.06639Zm-3.3877-4.162.5006.05961c1.22339.14225,1.75177-.38206,1.82425-1.13668a1.10984,1.10984,0,0,0-1.08723-1.34939,7.65289,7.65289,0,0,0-1.00256-.01355Z"/>
          <path class="cls-2" d="M52.48559,57.10841l-.75666-.233.04539-.54734a6.36573,6.36573,0,0,0,.9145.18154c.378.01761.75327-.10567,1.199-.08535,1.40629.065,2.53688,1.21526,2.42172,3.66475-.12126,2.566-1.22949,3.40328-2.52875,3.34367a9.603,9.603,0,0,0-1.29723-.10567l-1.00527.09348-.05622-.65708.79934-.0569Zm.33735,5.62652.96936.04335c1.04727.04877,1.78767-.61915,1.88047-2.5782.10974-2.333-1.02491-3.20277-1.88318-3.12554l-.70247.061Z"/>
          <path class="cls-2" d="M59.17292,62.93273l1.45439-.00948.00474.65437-2.86.019-.00542-.65437.80476-.00542-.04064-5.67935-.80611-.11109-.00406-.56089a7.38441,7.38441,0,0,0,1.00933.13277c.55276-.00271,1.10485-.14632,1.65693-.15038a1.62392,1.62392,0,0,1,1.72061,1.82357,1.96845,1.96845,0,0,1-2.127,2.211l-.8244-.019Zm-.02168-3.00361.80476.019a1.34665,1.34665,0,0,0,1.52009-1.54042,1.15893,1.15893,0,0,0-1.20171-1.302,9.44572,9.44572,0,0,0-1.14278.14767Z"/>
          <path class="cls-2" d="M68.67283,63.32021l-1.06623.05013-1.91434-3.10386-.94159.04335.12058,2.53078.91991-.042.03116.653-2.31672.10567-.03116-.653.79527-.03658-.26419-5.61026-.80069-.07993-.02981-.61779a3.22475,3.22475,0,0,0,.89824.0989c.4945-.023.99307-.18561,1.48758-.20864a1.7032,1.7032,0,0,1,1.936,1.72332,1.84334,1.84334,0,0,1-1.17055,1.94686l1.61764,2.57955.69773-.03252Zm-3.95062-3.64037.504-.01219c1.23287-.03252,1.68-.62592,1.64474-1.38461a1.11152,1.11152,0,0,0-1.27081-1.18,7.68921,7.68921,0,0,0-.99443.12735Z"/>
          <path class="cls-2" d="M69.52094,63.25247l-.06232-.65166.96462-.09348L69.8759,56.8361l-.96462.09348-.06368-.65031,4.586-.443.19509,2.02273-.59882.0569-.02981-.30212c-.09213-.96462-.13142-1.06623-.89417-.99307l-1.63119.15851.21135,2.19614,1.32365-.12735-.09484-.97682.59882-.0569.26148,2.7191-.59747.0569-.10568-1.092-1.32229.12735.27232,2.82477,1.8046-.17477c.73431-.07045.79121-.18154.66657-1.47132l-.02032-.22083.59747-.05826.21948,2.26659Z"/>
          <path class="cls-2" d="M78.13481,62.40165a2.30393,2.30393,0,0,1-1.40494-.21406l.03522.43218-.58934-.00677-.08806-1.23965a4.11151,4.11151,0,0,0-.25064-1.0134l.55954-.191.1409.546a1.32109,1.32109,0,0,0,2.60936-.39154c-.3089-2.0566-3.23664-.45928-3.61734-2.99006a1.85151,1.85151,0,0,1,1.62712-2.15956,2.17586,2.17586,0,0,1,1.12855.13819l-.00948-.45928.59476.04064.08671,1.16784a4.017,4.017,0,0,0,.2398,1.00527l-.57037.191a3.64881,3.64881,0,0,0-.29535-1.054,1.02338,1.02338,0,0,0-1.096-.37935,1.19066,1.19066,0,0,0-1.08927,1.36836c.28045,1.86151,3.22444.37935,3.61327,2.96838A1.88814,1.88814,0,0,1,78.13481,62.40165Z"/>
          <path class="cls-2" d="M84.15286,61.311a2.30187,2.30187,0,0,1-1.41577-.13006l.061.42947-.588.02845-.16258-1.23152a4.18032,4.18032,0,0,0-.31161-.99714l.546-.22354.17477.5365a1.32015,1.32015,0,0,0,2.57955-.546c-.43354-2.03492-3.25831-.26554-3.79211-2.76923a1.84845,1.84845,0,0,1,1.493-2.25169,2.16684,2.16684,0,0,1,1.13533.07045l-.03793-.45792.59612.00406.15716,1.16107a4.01728,4.01728,0,0,0,.30077.989l-.55683.2249a3.68749,3.68749,0,0,0-.359-1.03507,1.02891,1.02891,0,0,0-1.11772-.313,1.19078,1.19078,0,0,0-1.00391,1.432c.39289,1.83983,3.2407.18425,3.78669,2.74484A1.8867,1.8867,0,0,1,84.15286,61.311Z"/>
        </g>
        <path class="cls-1" d="M118.45125,35.59429C118.45125,15.93611,91.935,0,59.22563,0"/>
        <path class="cls-1" d="M59.22563,0C26.51622,0,0,15.93611,0,35.59429S26.51622,71.18858,59.22563,71.18858"/>
        <g>
          <path class="cls-3" d="M88.15978,56.964a66.92142,66.92142,0,0,0,7.49088-2.47788,44.43353,44.43353,0,0,0,6.18575-3.01868"/>
          <path class="cls-3" d="M18.04579,51.01954a44.43355,44.43355,0,0,0,6.15312,3.08464,66.92144,66.92144,0,0,0,7.464,2.55782"/>
        </g>
        <g>
          <path class="cls-4" d="M40.8986,17.1172,42.164,26.40305l-.3658.05013-.59544-4.3679a5.93633,5.93633,0,0,1-.07451-1.06217,2.78373,2.78373,0,0,1-5.47-.30348,2.80982,2.80982,0,0,1,2.47727-3.36534A2.57444,2.57444,0,0,1,40.816,18.7362a6.47239,6.47239,0,0,1-.21135-1.04185l-.0718-.527Zm-.02574,2.543a2.40947,2.40947,0,0,0-2.7191-2.00512,2.45042,2.45042,0,0,0-2.11553,2.944,2.46083,2.46083,0,1,0,4.90237-.43489Z"/>
          <path class="cls-4" d="M48.48213,21.0055a2.23755,2.23755,0,0,1-1.66438,1.23829,1.6336,1.6336,0,0,1-1.743-1.60274l-.29332-3.84494.36715-.0271.27977,3.65934c.06842.89688.5785,1.50655,1.453,1.44016,1.15023-.08806,2.10063-1.89673,2.92367-5.66445l.35225.06639a9.2055,9.2055,0,0,0-.01829,2.17718l.25674,3.35992-.36851.02845L49.818,19.09658a11.30672,11.30672,0,0,1-.01829-1.75719A11.86379,11.86379,0,0,1,48.48213,21.0055Z"/>
          <path class="cls-4" d="M58.98731,16.02387l.10567,5.49239-.36986.00677-.00948-.52973a6.0029,6.0029,0,0,1,.04945-1.06352,2.78384,2.78384,0,0,1-5.39823-.93346,2.80954,2.80954,0,0,1,2.85052-3.05645,2.57335,2.57335,0,0,1,2.50233,1.68267,6.2561,6.2561,0,0,1-.08942-1.05946l-.01084-.53108Zm-.32109,2.52265a2.41031,2.41031,0,0,0-2.46914-2.30588A2.44947,2.44947,0,0,0,53.7564,18.9191a2.4606,2.4606,0,1,0,4.91931.13548Z"/>
          <path class="cls-4" d="M62.86748,21.57046l.39967-18.18287.36851.00813-.39831,18.18152Z"/>
          <path class="cls-4" d="M67.03758,21.71l.2669-5.487.36851.01761-.2669,5.487Zm.52567-6.99894a.32282.32282,0,1,1,.3387-.30754A.31631.31631,0,0,1,67.56324,14.71106Z"/>
          <path class="cls-4" d="M72.133,22.03515l.41457-5.06021-1.84118-.15174.0271-.32109,1.83983.15038.233-2.85322.36851.02981-.233,2.85322,1.83983.15038-.0271.32244-1.83847-.15038-.41457,5.06156Z"/>
          <path class="cls-4" d="M76.92361,16.94921l.43489.05555,1.47132,5.281,2.74213-4.7486.41186.05284L78.91247,22.7383a26.69029,26.69029,0,0,1-2.82206,3.73656l-.26961-.26554a24.56906,24.56906,0,0,0,2.77736-3.55772Z"/>
        </g>
        <g>
          <path class="cls-4" d="M47.79186,6.66351a2.07614,2.07614,0,0,1,.714.07045l-.02845.13413a2.00532,2.00532,0,0,0-.67469-.0718c-.91043.06774-1.63661.81017-1.51467,2.44272l.21,2.78548.74921-.05555.00948.13006-.74921.0569.12058,1.61358a2.21427,2.21427,0,0,1-.73972,2.20563l-.084-.107a2.08885,2.08885,0,0,0,.6774-2.04982l-.12464-1.65151-.75192.0569-.00813-.13142.75056-.05555-.20729-2.75839C46.02112,7.69316,46.70259,6.74615,47.79186,6.66351Z"/>
          <path class="cls-4" d="M48.47875,11.23327a.12908.12908,0,0,1-.13819-.12464.12623.12623,0,0,1,.12193-.13819.12806.12806,0,0,1,.1409.12329A.13027.13027,0,0,1,48.47875,11.23327Zm.10161,2.85729-.13819-2.23408.15038-.00813.13819,2.23272Z"/>
          <path class="cls-4" d="M50.96753,12.118a.8843.8843,0,0,1,.69366-.48231.66376.66376,0,0,1,.68824.67469l.07451,1.58648-.15038.00677-.0691-1.512c-.01761-.3658-.21677-.6205-.57444-.60424-.47012.02168-.87792.7465-1.26,2.26795l-.14225-.02981a3.72091,3.72091,0,0,0,.03387-.8874L50.198,11.75894l.15038-.00677.05284,1.1272a4.59266,4.59266,0,0,1-.0149.71534A4.80627,4.80627,0,0,1,50.96753,12.118Z"/>
          <path class="cls-4" d="M53.64463,12.78724a1.10074,1.10074,0,0,1,1.1123-1.24507A.986.986,0,0,1,55.792,12.54473l.00406.14225-1.99292.04064a1.01228,1.01228,0,0,0,1.8466.61915l.08535.08264a1.15365,1.15365,0,0,1-2.09047-.64218Zm.16529-.191,1.81273-.03793a.828.828,0,0,0-.8725-.89417A.92711.92711,0,0,0,53.80991,12.59621Z"/>
          <path class="cls-4" d="M57.56409,12.81162c-.37664-.103-.62186-.31838-.62321-.65708a.6606.6606,0,0,1,.714-.65031.74228.74228,0,0,1,.57308.252l-.10161.09484a.57709.57709,0,0,0-.481-.2249.50625.50625,0,0,0-.55412.49992c.00135.31025.18967.47012.55683.56225.40509.10161.60424.29941.60424.61915.00135.34819-.33735.565-.714.56631a1.03067,1.03067,0,0,1-.66927-.22354l.08535-.11245a.97188.97188,0,0,0,.59341.21406c.31973-.00135.55547-.17071.55412-.43354C58.10059,13.05413,57.93124,12.91323,57.56409,12.81162Z"/>
          <path class="cls-4" d="M59.97022,13.80741l.0271-2.07015-.75327-.00948.00135-.13277.75327.01084.01355-1.16649.15174.00135-.0149,1.16649.75192.00948-.00135.13142-.75192-.00948-.0271,2.07015Z"/>
        </g>
        <text class="cls-5" transform="translate(13.33051 44.0532)">LA<tspan class="cls-6" x="28.37939" y="0">M</tspan><tspan x="49.8291" y="0">B</tspan><tspan class="cls-7" x="64.78906" y="0">D</tspan><tspan x="79.85889" y="0">A</tspan></text>
      </g>
    </g>
  </g>
</svg>
