<svg xmlns="http://www.w3.org/2000/svg" viewBox="0 0 628.71069 58.1117">
  <g id="Слой_2" data-name="Слой 2">
    <g id="Layer_1" data-name="Layer 1">
      <g>
        <path class="decoration-secondary-1" d="M151.05714,39.97942,0,37.97942l151.05714-2a2.00018,2.00018,0,1,1,.053,4C151.09556,39.9796,151.07161,39.97952,151.05714,39.97942Z"/>
        <path class="decoration-secondary-1" d="M477.65353,35.97981l151.05716,2-151.05716,2a2.00018,2.00018,0,1,1-.05295-4C477.61511,35.97963,477.63907,35.97971,477.65353,35.97981Z"/>
        <path class="decoration-secondary-2" d="M151.05713,37.97941l88.97845.00362a4,4,0,0,0,2.82858-1.17157L254.3874,25.28822a4,4,0,0,1,5.65685,0l29.6519,29.6519a4,4,0,0,0,5.65685,0L310.19616,40.097a4,4,0,0,0,0-5.65685l-9.47766-9.47766a4,4,0,0,0-5.65685,0l-8.84315,8.84315a4,4,0,0,0,0,5.65685l2.64433,2.64433a4,4,0,0,0,5.65685,0l2.83174-2.83174a4,4,0,0,0,0-5.65685l-9.44109-9.44109L281.402,17.66881a4,4,0,0,0-5.65685,0L264.085,29.329l-6.55444,6.55444a4,4,0,0,0,.02088,5.67758l1.43529,1.41434a4,4,0,0,0,5.636-.02073l27.75716-27.75716L304.40574,3.17157a4,4,0,0,1,5.65686,0L320.89692,14.0059a4,4,0,0,1,0,5.65685l-6.54158,6.54158-6.5416-6.54158a4,4,0,0,1,0-5.65685L318.64807,3.17157a4,4,0,0,1,5.65686,0l12.02586,12.02587L364.08795,42.9546a4,4,0,0,0,5.636.02073l1.43529-1.41434a4,4,0,0,0,.02088-5.67758L364.62566,29.329,352.96549,17.66881a4,4,0,0,0-5.65685,0l-6.50829,6.50829-9.44109,9.44109a4,4,0,0,0,0,5.65685l2.83174,2.83174a4,4,0,0,0,5.65685,0l2.64433-2.64433a4,4,0,0,0,0-5.65685L333.649,24.96246a4,4,0,0,0-5.65685,0l-9.47766,9.47766a4,4,0,0,0,0,5.65685l14.84315,14.84315a4,4,0,0,0,5.65685,0l29.6519-29.6519a4,4,0,0,1,5.65685,0l11.52324,11.52324a4,4,0,0,0,2.82858,1.17157l88.97845-.00362"/>
      </g>
    </g>
  </g>
</svg>
