<?xml version="1.0" encoding="utf-8"?>
<!-- Generator: Adobe Illustrator 20.1.0, SVG Export Plug-In . SVG Version: 6.00 Build 0)  -->
<svg version="1.1" id="Capa_1" xmlns="http://www.w3.org/2000/svg" xmlns:xlink="http://www.w3.org/1999/xlink" x="0px" y="0px"
	 viewBox="0 0 29.1 29.1" style="enable-background:new 0 0 29.1 29.1;" xml:space="preserve">
<style type="text/css">
	.st0{fill:#131314;}
</style>
<g>
	<path class="st0" d="M21.7,6.1c1.1,0,2-0.9,2-2V2c0-1.1-0.9-2-2-2s-2,0.9-2,2v2.1C19.7,5.2,20.6,6.1,21.7,6.1z"/>
	<path class="st0" d="M28.9,3.5h-4.1v1c0,1.7-1.4,3.1-3.1,3.1c-1.7,0-3.1-1.4-3.1-3.1v-1h-8.2v1c0,1.7-1.4,3.1-3.1,3.1
		S4.3,6.2,4.3,4.5v-1L0.2,3.4v25.7h2.1h24.6l2,0L28.9,3.5z M26.9,27.1H2.3V10.7h24.6L26.9,27.1L26.9,27.1z"/>
	<path class="st0" d="M7.4,6.1c1.1,0,2-0.9,2-2V2c0-1.1-0.9-2-2-2s-2,0.9-2,2v2.1C5.3,5.2,6.2,6.1,7.4,6.1z"/>
	<rect x="10.5" y="12.9" class="st0" width="3.2" height="2.9"/>
	<rect x="15.7" y="12.9" class="st0" width="3.2" height="2.9"/>
	<rect x="20.5" y="12.9" class="st0" width="3.2" height="2.9"/>
	<rect x="10.5" y="17.6" class="st0" width="3.2" height="2.9"/>
	<rect x="15.7" y="17.6" class="st0" width="3.2" height="2.9"/>
	<rect x="20.5" y="17.6" class="st0" width="3.2" height="2.9"/>
	<rect x="10.5" y="22.4" class="st0" width="3.2" height="2.9"/>
	<rect x="5.3" y="17.6" class="st0" width="3.2" height="2.9"/>
	<rect x="5.3" y="22.4" class="st0" width="3.2" height="2.9"/>
	<rect x="15.7" y="22.4" class="st0" width="3.2" height="2.9"/>
	<rect x="20.5" y="22.4" class="st0" width="3.2" height="2.9"/>
</g>
</svg>
